<svg width="20" height="18" viewBox="0 0 20 18" fill="none" xmlns="http://www.w3.org/2000/svg">
<path d="M19.7734 15.1281L12.9401 8.95783L19.7891 2.86726C20.0703 2.61426 20.0703 2.20198 19.7891 1.94899L17.8411 0.187402C17.7057 0.0655908 17.5234 0 17.3307 0C17.138 0 16.9557 0.0702759 16.8203 0.187402L10.0026 6.25924L3.17448 0.192088C3.03906 0.0702762 2.85677 0.00468535 2.66406 0.00468535C2.47135 0.00468535 2.28906 0.0749612 2.15365 0.192088L0.210938 1.95367C-0.0703125 2.20666 -0.0703125 2.61895 0.210938 2.87194L7.0599 8.96252L0.231771 15.1281C0.0963543 15.2499 0.0182293 15.4138 0.0182293 15.5872C0.0182293 15.7605 0.0911459 15.9245 0.231771 16.0463L2.17969 17.8079C2.32031 17.9344 2.5026 18 2.6901 18C2.8724 18 3.0599 17.9391 3.20052 17.8079L10.0026 11.6611L16.8099 17.8032C16.9505 17.9297 17.1328 17.9953 17.3203 17.9953C17.5026 17.9953 17.6901 17.9344 17.8307 17.8032L19.7786 16.0416C19.9141 15.9198 19.9922 15.7559 19.9922 15.5825C19.987 15.4138 19.9089 15.2499 19.7734 15.1281Z" fill="black"/>
</svg>
