<svg width="32" height="37" viewBox="0 0 37 35" fill="none" xmlns="http://www.w3.org/2000/svg">
<path d="M34.5358 7H2.46417C1.10566 7 0 8.04675 0 9.33336C0 10.62 1.10566 11.6667 2.46417 11.6667H34.5357C35.8942 11.6667 36.9999 10.62 36.9999 9.33336C36.9999 8.04675 35.8943 7 34.5358 7ZM34.5358 10.5H2.46417C1.7855 10.5 1.2333 9.97671 1.2333 9.33336C1.2333 8.68993 1.7855 8.16672 2.46417 8.16672H34.5357C35.2144 8.16672 35.7666 8.69001 35.7666 9.33336C35.7667 9.97671 35.2144 10.5 34.5358 10.5Z" fill="#FA8B24"/>
<path d="M34.5358 15.1667H2.46417C1.10566 15.1667 0 16.2135 0 17.5C0 18.7866 1.10566 19.8334 2.46417 19.8334H34.5357C35.8942 19.8334 36.9999 18.7867 36.9999 17.5C36.9999 16.2134 35.8943 15.1667 34.5358 15.1667ZM34.5358 18.6667H2.46417C1.7855 18.6667 1.2333 18.1435 1.2333 17.5C1.2333 16.8566 1.7855 16.3334 2.46417 16.3334H34.5357C35.2144 16.3334 35.7666 16.8567 35.7666 17.5C35.7667 18.1435 35.2144 18.6667 34.5358 18.6667Z" fill="#FA8B24"/>
<path d="M34.5358 23.3333H2.46417C1.10566 23.3333 0 24.3801 0 25.6666C0 26.9531 1.10566 28 2.46417 28H34.5357C35.8942 28 36.9999 26.9532 36.9999 25.6666C37 24.3801 35.8943 23.3333 34.5358 23.3333ZM34.5358 26.8333H2.46417C1.7855 26.8333 1.2333 26.31 1.2333 25.6667C1.2333 25.0232 1.7855 24.5 2.46417 24.5H34.5357C35.2144 24.5 35.7666 25.0233 35.7666 25.6667C35.7667 26.31 35.2144 26.8333 34.5358 26.8333Z" fill="#FA8B24"/>
</svg>